<svg xmlns="http://www.w3.org/2000/svg" width="217" height="256" viewBox="0 0 217 256">
  <g id="icon_profile-circle" transform="translate(-2452.39 -926)">
    <g id="Group_39" data-name="Group 39" transform="translate(2446.87 922.49)">
      <path id="Path_248" data-name="Path 248" d="M5.52,213.5a85.237,85.237,0,0,1,21.968-34.917,108.736,108.736,0,0,1,35.72-23.837,107.085,107.085,0,0,1,40.918-8.393H124.25a109.582,109.582,0,0,1,76.47,32.231,88.471,88.471,0,0,1,21.8,34.917,146.44,146.44,0,0,1-49.135,35.756,145.3,145.3,0,0,1-59.2,12.254,145.631,145.631,0,0,1-60.036-12.422A148.442,148.442,0,0,1,5.52,213.5Z" transform="translate(0 -2)" fill="#fff"/>
      <path id="Path_249" data-name="Path 249" d="M74.817,21.795Q91.236,5.344,114.02,5.512q22.617.168,39.2,16.619,16.418,16.619,16.586,39.281.335,22.83-16.251,39.281-16.418,16.619-39.2,16.451-22.617-.336-39.2-16.787Q58.734,83.906,58.566,61.076,58.231,38.246,74.817,21.795Z" transform="translate(0 -2)" fill="rgba(255,255,255,0.6)"/>
    </g>
  </g>
</svg>
